<?xml version="1.0" encoding="UTF-8" standalone="no"?>
<!DOCTYPE svg PUBLIC "-//W3C//DTD SVG 1.1//EN"
 "http://www.w3.org/Graphics/SVG/1.1/DTD/svg11.dtd">
<!-- Generated by graphviz version 8.0.2 (20230410.1723)
 -->
<!-- Title: Note Nirvana Architecture Pages: 1 -->
<svg width="1514pt" height="875pt"
 viewBox="0.00 0.00 1514.00 875.00" xmlns="http://www.w3.org/2000/svg" xmlns:xlink="http://www.w3.org/1999/xlink">
<g id="graph0" class="graph" transform="scale(1 1) rotate(0) translate(144 731)">
<title>Note Nirvana Architecture</title>
<polygon fill="white" stroke="none" points="-144,144 -144,-731 1370,-731 1370,144 -144,144"/>
<text text-anchor="middle" x="613" y="-9" font-family="Sans-Serif" font-size="15.00" fill="#2d3436">Note Nirvana Architecture</text>
<g id="clust1" class="cluster">
<title>cluster_Kubernetes Cluster</title>
<path fill="#e5f5fd" stroke="#aeb6be" d="M20,-33C20,-33 1206,-33 1206,-33 1212,-33 1218,-39 1218,-45 1218,-45 1218,-567 1218,-567 1218,-573 1212,-579 1206,-579 1206,-579 20,-579 20,-579 14,-579 8,-573 8,-567 8,-567 8,-45 8,-45 8,-39 14,-33 20,-33"/>
<text text-anchor="middle" x="67.5" y="-565.4" font-family="Sans-Serif" font-size="12.00" fill="#2d3436">Kubernetes Cluster</text>
</g>
<g id="clust4" class="cluster">
<title>cluster_MySQL Database</title>
<path fill="#ebf3e7" stroke="#aeb6be" d="M950,-375C950,-375 1198,-375 1198,-375 1204,-375 1210,-381 1210,-387 1210,-387 1210,-538 1210,-538 1210,-544 1204,-550 1198,-550 1198,-550 950,-550 950,-550 944,-550 938,-544 938,-538 938,-538 938,-387 938,-387 938,-381 944,-375 950,-375"/>
<text text-anchor="middle" x="993.5" y="-536.4" font-family="Sans-Serif" font-size="12.00" fill="#2d3436">MySQL Database</text>
</g>
<g id="clust5" class="cluster">
<title>cluster_Keycloak</title>
<path fill="#ebf3e7" stroke="#aeb6be" d="M640,-224C640,-224 733,-224 733,-224 739,-224 745,-230 745,-236 745,-236 745,-387 745,-387 745,-393 739,-399 733,-399 733,-399 640,-399 640,-399 634,-399 628,-393 628,-387 628,-387 628,-236 628,-236 628,-230 634,-224 640,-224"/>
<text text-anchor="middle" x="661" y="-385.4" font-family="Sans-Serif" font-size="12.00" fill="#2d3436">Keycloak</text>
</g>
<g id="clust2" class="cluster">
<title>cluster_notenirvana&#45;front</title>
<path fill="#ebf3e7" stroke="#aeb6be" d="M485,-41C485,-41 733,-41 733,-41 739,-41 745,-47 745,-53 745,-53 745,-204 745,-204 745,-210 739,-216 733,-216 733,-216 485,-216 485,-216 479,-216 473,-210 473,-204 473,-204 473,-53 473,-53 473,-47 479,-41 485,-41"/>
<text text-anchor="middle" x="526.5" y="-202.4" font-family="Sans-Serif" font-size="12.00" fill="#2d3436">notenirvana&#45;front</text>
</g>
<g id="clust3" class="cluster">
<title>cluster_notenirvana&#45;service</title>
<path fill="#ebf3e7" stroke="#aeb6be" d="M795,-192C795,-192 1043,-192 1043,-192 1049,-192 1055,-198 1055,-204 1055,-204 1055,-355 1055,-355 1055,-361 1049,-367 1043,-367 1043,-367 795,-367 795,-367 789,-367 783,-361 783,-355 783,-355 783,-204 783,-204 783,-198 789,-192 795,-192"/>
<text text-anchor="middle" x="844" y="-353.4" font-family="Sans-Serif" font-size="12.00" fill="#2d3436">notenirvana&#45;service</text>
</g>
<!-- 54a9a11c51fe415b98ee65b10971900e -->
<g id="node1" class="node">
<title>54a9a11c51fe415b98ee65b10971900e</title>
<image xlink:href="/Users/PRASI/Documents/My_Documents/MBA-SataProject/venv/lib/python3.9/site-packages/resources/onprem/network/traefik.png" width="101px" height="101px" preserveAspectRatio="xMinYMin meet" x="16" y="-351.5"/>
<text text-anchor="middle" x="66.5" y="-236.1" font-family="Sans-Serif" font-size="13.00" fill="#2d3436">Traefik</text>
</g>
<!-- ee96048b59bc4a50baab24aa0e638273 -->
<g id="node2" class="node">
<title>ee96048b59bc4a50baab24aa0e638273</title>
<image xlink:href="/Users/PRASI/Documents/My_Documents/MBA-SataProject/venv/lib/python3.9/site-packages/resources/k8s/network/ing.png" width="101px" height="101px" preserveAspectRatio="xMinYMin meet" x="171" y="-351.5"/>
<text text-anchor="middle" x="221.5" y="-236.1" font-family="Sans-Serif" font-size="13.00" fill="#2d3436">Ingress</text>
</g>
<!-- 54a9a11c51fe415b98ee65b10971900e&#45;&gt;ee96048b59bc4a50baab24aa0e638273 -->
<g id="edge1" class="edge">
<title>54a9a11c51fe415b98ee65b10971900e&#45;&gt;ee96048b59bc4a50baab24aa0e638273</title>
<path fill="none" stroke="#7b8894" d="M116.82,-301C116.82,-301 160.16,-301 160.16,-301"/>
<polygon fill="#7b8894" stroke="#7b8894" points="160.16,-304.5 170.16,-301 160.16,-297.5 160.16,-304.5"/>
</g>
<!-- a325261162e24547bf5dde7aa846cd26 -->
<g id="node9" class="node">
<title>a325261162e24547bf5dde7aa846cd26</title>
<image xlink:href="/Users/PRASI/Documents/My_Documents/MBA-SataProject/venv/lib/python3.9/site-packages/resources/k8s/network/svc.png" width="101px" height="101px" preserveAspectRatio="xMinYMin meet" x="326" y="-203.5"/>
<text text-anchor="middle" x="376.5" y="-88.1" font-family="Sans-Serif" font-size="13.00" fill="#2d3436">https://notenirvana.ooguy.com</text>
</g>
<!-- ee96048b59bc4a50baab24aa0e638273&#45;&gt;a325261162e24547bf5dde7aa846cd26 -->
<g id="edge5" class="edge">
<title>ee96048b59bc4a50baab24aa0e638273&#45;&gt;a325261162e24547bf5dde7aa846cd26</title>
<path fill="none" stroke="#7b8894" d="M271.99,-278.17C317.39,-278.17 377,-278.17 377,-278.17 377,-278.17 377,-232.44 377,-232.44"/>
<polygon fill="#7b8894" stroke="#7b8894" points="380.5,-232.44 377,-222.44 373.5,-232.44 380.5,-232.44"/>
</g>
<!-- 796ad39fc45f426f816e1b5c16b62055 -->
<g id="node10" class="node">
<title>796ad39fc45f426f816e1b5c16b62055</title>
<image xlink:href="/Users/PRASI/Documents/My_Documents/MBA-SataProject/venv/lib/python3.9/site-packages/resources/k8s/network/svc.png" width="101px" height="101px" preserveAspectRatio="xMinYMin meet" x="636" y="-531.5"/>
<text text-anchor="middle" x="686.5" y="-416.1" font-family="Sans-Serif" font-size="13.00" fill="#2d3436">https://nirvana.ooguy.com</text>
</g>
<!-- ee96048b59bc4a50baab24aa0e638273&#45;&gt;796ad39fc45f426f816e1b5c16b62055 -->
<g id="edge7" class="edge">
<title>ee96048b59bc4a50baab24aa0e638273&#45;&gt;796ad39fc45f426f816e1b5c16b62055</title>
<path fill="none" stroke="#7b8894" d="M222,-369.31C222,-420.23 222,-481 222,-481 222,-481 625.35,-481 625.35,-481"/>
<polygon fill="#7b8894" stroke="#7b8894" points="625.35,-484.5 635.35,-481 625.35,-477.5 625.35,-484.5"/>
</g>
<!-- 2ae5ae67730e47e68008a36b48f2fcd5 -->
<g id="node11" class="node">
<title>2ae5ae67730e47e68008a36b48f2fcd5</title>
<image xlink:href="/Users/PRASI/Documents/My_Documents/MBA-SataProject/venv/lib/python3.9/site-packages/resources/k8s/network/svc.png" width="101px" height="101px" preserveAspectRatio="xMinYMin meet" x="481" y="-351.5"/>
<text text-anchor="middle" x="531.5" y="-236.1" font-family="Sans-Serif" font-size="13.00" fill="#2d3436">https://keycloak.ooguy.com</text>
</g>
<!-- ee96048b59bc4a50baab24aa0e638273&#45;&gt;2ae5ae67730e47e68008a36b48f2fcd5 -->
<g id="edge9" class="edge">
<title>ee96048b59bc4a50baab24aa0e638273&#45;&gt;2ae5ae67730e47e68008a36b48f2fcd5</title>
<path fill="none" stroke="#7b8894" d="M272,-323.83C272,-323.83 470.02,-323.83 470.02,-323.83"/>
<polygon fill="#7b8894" stroke="#7b8894" points="470.02,-327.33 480.02,-323.83 470.02,-320.33 470.02,-327.33"/>
</g>
<!-- 3d1f1d7e3841414fa796508ccfbbaa00 -->
<g id="node3" class="node">
<title>3d1f1d7e3841414fa796508ccfbbaa00</title>
<image xlink:href="/Users/PRASI/Documents/My_Documents/MBA-SataProject/venv/lib/python3.9/site-packages/resources/k8s/compute/deploy.png" width="101px" height="101px" preserveAspectRatio="xMinYMin meet" x="481" y="-168.5"/>
<text text-anchor="middle" x="531.5" y="-53.1" font-family="Sans-Serif" font-size="13.00" fill="#2d3436">notenirvana&#45;front</text>
</g>
<!-- b42c9d9e655641979ef2545441cd83da -->
<g id="node4" class="node">
<title>b42c9d9e655641979ef2545441cd83da</title>
<image xlink:href="/Users/PRASI/Documents/My_Documents/MBA-SataProject/venv/lib/python3.9/site-packages/resources/programming/framework/react.png" width="101px" height="101px" preserveAspectRatio="xMinYMin meet" x="636" y="-168.5"/>
<text text-anchor="middle" x="686.5" y="-53.1" font-family="Sans-Serif" font-size="13.00" fill="#2d3436">next&#45;js</text>
</g>
<!-- 3d1f1d7e3841414fa796508ccfbbaa00&#45;&gt;b42c9d9e655641979ef2545441cd83da -->
<g id="edge2" class="edge">
<title>3d1f1d7e3841414fa796508ccfbbaa00&#45;&gt;b42c9d9e655641979ef2545441cd83da</title>
<path fill="none" stroke="#7b8894" d="M592.82,-118C592.82,-118 636.16,-118 636.16,-118"/>
<polygon fill="#7b8894" stroke="#7b8894" points="592.82,-114.5 582.82,-118 592.82,-121.5 592.82,-114.5"/>
</g>
<!-- 6c31a474d2234a948eccfeabe4e02e58 -->
<g id="node12" class="node">
<title>6c31a474d2234a948eccfeabe4e02e58</title>
<image xlink:href="/Users/PRASI/Documents/My_Documents/MBA-SataProject/venv/lib/python3.9/site-packages/resources/onprem/auth/oauth2-proxy.png" width="101px" height="101px" preserveAspectRatio="xMinYMin meet" x="636" y="-351.5"/>
<text text-anchor="middle" x="686.5" y="-236.1" font-family="Sans-Serif" font-size="13.00" fill="#2d3436">keycloak</text>
</g>
<!-- 3d1f1d7e3841414fa796508ccfbbaa00&#45;&gt;6c31a474d2234a948eccfeabe4e02e58 -->
<g id="edge11" class="edge">
<title>3d1f1d7e3841414fa796508ccfbbaa00&#45;&gt;6c31a474d2234a948eccfeabe4e02e58</title>
<path fill="none" stroke="#7b8894" d="M532,-186.26C532,-190.73 532,-193.5 532,-193.5 532,-193.5 687,-193.5 687,-193.5 687,-193.5 687,-221.61 687,-221.61"/>
<polygon fill="#7b8894" stroke="#7b8894" points="683.5,-221.61 687,-231.61 690.5,-221.61 683.5,-221.61"/>
</g>
<!-- 92980b2d210040c1a7060715bdec751f -->
<g id="node5" class="node">
<title>92980b2d210040c1a7060715bdec751f</title>
<image xlink:href="/Users/PRASI/Documents/My_Documents/MBA-SataProject/venv/lib/python3.9/site-packages/resources/k8s/compute/deploy.png" width="101px" height="101px" preserveAspectRatio="xMinYMin meet" x="791" y="-319.5"/>
<text text-anchor="middle" x="841.5" y="-204.1" font-family="Sans-Serif" font-size="13.00" fill="#2d3436">notenirvana&#45;service</text>
</g>
<!-- db86ea377ac046e194ebe688a3dedb38 -->
<g id="node6" class="node">
<title>db86ea377ac046e194ebe688a3dedb38</title>
<image xlink:href="/Users/PRASI/Documents/My_Documents/MBA-SataProject/venv/lib/python3.9/site-packages/resources/programming/framework/spring.png" width="101px" height="101px" preserveAspectRatio="xMinYMin meet" x="946" y="-319.5"/>
<text text-anchor="middle" x="996.5" y="-204.1" font-family="Sans-Serif" font-size="13.00" fill="#2d3436">spring&#45;boot</text>
</g>
<!-- 92980b2d210040c1a7060715bdec751f&#45;&gt;db86ea377ac046e194ebe688a3dedb38 -->
<g id="edge3" class="edge">
<title>92980b2d210040c1a7060715bdec751f&#45;&gt;db86ea377ac046e194ebe688a3dedb38</title>
<path fill="none" stroke="#7b8894" d="M902.82,-269C902.82,-269 946.16,-269 946.16,-269"/>
<polygon fill="#7b8894" stroke="#7b8894" points="902.82,-265.5 892.82,-269 902.82,-272.5 902.82,-265.5"/>
</g>
<!-- ba0f7195bf1d442ca921fe69972843df -->
<g id="node7" class="node">
<title>ba0f7195bf1d442ca921fe69972843df</title>
<image xlink:href="/Users/PRASI/Documents/My_Documents/MBA-SataProject/venv/lib/python3.9/site-packages/resources/onprem/database/mysql.png" width="101px" height="101px" preserveAspectRatio="xMinYMin meet" x="946" y="-502.5"/>
<text text-anchor="middle" x="996.5" y="-387.1" font-family="Sans-Serif" font-size="13.00" fill="#2d3436">mysql</text>
</g>
<!-- 92980b2d210040c1a7060715bdec751f&#45;&gt;ba0f7195bf1d442ca921fe69972843df -->
<g id="edge13" class="edge">
<title>92980b2d210040c1a7060715bdec751f&#45;&gt;ba0f7195bf1d442ca921fe69972843df</title>
<path fill="none" stroke="#7b8894" d="M859,-337.28C859,-368.22 859,-398 859,-398 859,-398 935.08,-398 935.08,-398"/>
<polygon fill="#7b8894" stroke="#7b8894" points="935.08,-401.5 945.08,-398 935.08,-394.5 935.08,-401.5"/>
</g>
<!-- da7355831aa64076bfa5caafc6316d85 -->
<g id="node8" class="node">
<title>da7355831aa64076bfa5caafc6316d85</title>
<image xlink:href="/Users/PRASI/Documents/My_Documents/MBA-SataProject/venv/lib/python3.9/site-packages/resources/k8s/storage/pvc.png" width="101px" height="101px" preserveAspectRatio="xMinYMin meet" x="1101" y="-502.5"/>
<text text-anchor="middle" x="1151.5" y="-387.1" font-family="Sans-Serif" font-size="13.00" fill="#2d3436">PVC</text>
</g>
<!-- ba0f7195bf1d442ca921fe69972843df&#45;&gt;da7355831aa64076bfa5caafc6316d85 -->
<g id="edge4" class="edge">
<title>ba0f7195bf1d442ca921fe69972843df&#45;&gt;da7355831aa64076bfa5caafc6316d85</title>
<path fill="none" stroke="#7b8894" d="M1057.82,-452C1057.82,-452 1101.16,-452 1101.16,-452"/>
<polygon fill="#7b8894" stroke="#7b8894" points="1057.82,-448.5 1047.82,-452 1057.82,-455.5 1057.82,-448.5"/>
</g>
<!-- a325261162e24547bf5dde7aa846cd26&#45;&gt;3d1f1d7e3841414fa796508ccfbbaa00 -->
<g id="edge6" class="edge">
<title>a325261162e24547bf5dde7aa846cd26&#45;&gt;3d1f1d7e3841414fa796508ccfbbaa00</title>
<path fill="none" stroke="#7b8894" d="M426.82,-135.5C426.82,-135.5 470.16,-135.5 470.16,-135.5"/>
<polygon fill="#7b8894" stroke="#7b8894" points="470.16,-139 480.16,-135.5 470.16,-132 470.16,-139"/>
</g>
<!-- 796ad39fc45f426f816e1b5c16b62055&#45;&gt;92980b2d210040c1a7060715bdec751f -->
<g id="edge8" class="edge">
<title>796ad39fc45f426f816e1b5c16b62055&#45;&gt;92980b2d210040c1a7060715bdec751f</title>
<path fill="none" stroke="#7b8894" d="M736.89,-466.5C776.49,-466.5 825,-466.5 825,-466.5 825,-466.5 825,-348.24 825,-348.24"/>
<polygon fill="#7b8894" stroke="#7b8894" points="828.5,-348.24 825,-338.24 821.5,-348.24 828.5,-348.24"/>
</g>
<!-- 2ae5ae67730e47e68008a36b48f2fcd5&#45;&gt;6c31a474d2234a948eccfeabe4e02e58 -->
<g id="edge10" class="edge">
<title>2ae5ae67730e47e68008a36b48f2fcd5&#45;&gt;6c31a474d2234a948eccfeabe4e02e58</title>
<path fill="none" stroke="#7b8894" d="M581.82,-301C581.82,-301 625.16,-301 625.16,-301"/>
<polygon fill="#7b8894" stroke="#7b8894" points="625.16,-304.5 635.16,-301 625.16,-297.5 625.16,-304.5"/>
</g>
<!-- 6c31a474d2234a948eccfeabe4e02e58&#45;&gt;92980b2d210040c1a7060715bdec751f -->
<g id="edge12" class="edge">
<title>6c31a474d2234a948eccfeabe4e02e58&#45;&gt;92980b2d210040c1a7060715bdec751f</title>
<path fill="none" stroke="#7b8894" d="M736.82,-285C736.82,-285 780.16,-285 780.16,-285"/>
<polygon fill="#7b8894" stroke="#7b8894" points="780.16,-288.5 790.16,-285 780.16,-281.5 780.16,-288.5"/>
</g>
</g>
</svg>
